{"title":"American.Chopper.Senior.vs.Junior.S04E13.Impasse.720p.HDTV.x264-","uid":7888114,"size":1167697798,"categoryP":"video","categoryS":"hd___tv_shows","magnet":"?xt=urn:btih:98a21756be0145829295df5a08fdde83abfb6fae&amp;dn=American.Chopper.Senior.vs.Junior.S04E13.Impasse.720p.HDTV.x264-&amp;tr=udp%3A%2F%2Ftracker.openbittorrent.com%3A80&amp;tr=udp%3A%2F%2Fopen.demonii.com%3A1337&amp;tr=udp%3A%2F%2Ftracker.coppersurfer.tk%3A6969&amp;tr=udp%3A%2F%2Fexodus.desync.com%3A6969","seeders":1,"leechers":0,"uploader":"Diegotimmy","files":1,"time":1354662127,"description":"Format                                   : Matroska\nFormat version                           : Version 2\nFile size                                : 1.09 GiB\nDuration                                 : 42mn 33s\nOverall bit rate                         : 3 658 Kbps\nEncoded date                             : UTC 2012-11-27 03:03:57\nWriting application                      : mkvmerge v5.8.0 ('No Sleep / Pillow') built on Sep  2 2012 15:37:04\nWriting library                          : libebml v1.2.3 + libmatroska v1.3.0\n\nVideo\nID                                       : 1\nFormat                                   : AVC\nFormat/Info                              : Advanced Video Codec\nFormat profile                           : &lt;a class=&quot;__cf_email__&quot; href=&quot;/cdn-cgi/l/email-protection&quot; data-cfemail=&quot;4109282629010d756f70&quot;&gt;[email&amp;#160;protected]&lt;/a&gt;&lt;script cf-hash='f9e31' type=&quot;text/javascript&quot;&gt;\n/* &lt;![CDATA[ */!function(){try{var t=&quot;currentScript&quot;in document?document.currentScript:function(){for(var t=document.getElementsByTagName(&quot;script&quot;),e=t.length;e--;)if(t[e].getAttribute(&quot;cf-hash&quot;))return t[e]}();if(t&amp;&amp;t.previousSibling){var e,r,n,i,c=t.previousSibling,a=c.getAttribute(&quot;data-cfemail&quot;);if(a){for(e=&quot;&quot;,r=parseInt(a.substr(0,2),16),n=2;a.length-n;n+=2)i=parseInt(a.substr(n,2),16)^r,e+=String.fromCharCode(i);e=document.createTextNode(e),c.parentNode.replaceChild(e,c)}}}catch(u){}}();/* ]]&gt; */&lt;/script&gt;\nFormat settings, CABAC                   : Yes\nFormat settings, ReFrames                : 5 frames\nCodec ID                                 : V_MPEG4/ISO/AVC\nDuration                                 : 42mn 33s\nBit rate                                 : 3 202 Kbps\nWidth                                    : 1 280 pixels\nHeight                                   : 720 pixels\nDisplay aspect ratio                     : 16:9\nFrame rate                               : 29.970 fps\nColor space                              : YUV\nChroma subsampling                       : 4:2:0\nBit depth                                : 8 bits\nScan type                                : Progressive\nBits/(Pixel*Frame)                       : 0.116\nStream size                              : 975 MiB (88%)\nWriting library                          : x264 core 129 r2230 1cffe9f\nEncoding settings                        : cabac=1 / ref=5 / deblock=1:0:0 / analyse=0x3:0x113 / me=umh / subme=8 / psy=1 / psy_rd=1.00:0.00 / mixed_ref=1 / me_range=16 / chroma_me=1 / trellis=1 / 8x8dct=1 / cqm=0 / deadzone=21,11 / fast_pskip=1 / chroma_qp_offset=-2 / threads=18 / lookahead_threads=3 / sliced_threads=0 / nr=0 / decimate=1 / interlaced=0 / bluray_compat=0 / constrained_intra=0 / bframes=3 / b_pyramid=2 / b_adapt=2 / b_bias=0 / direct=3 / weightb=1 / open_gop=0 / weightp=2 / keyint=250 / keyint_min=25 / scenecut=40 / intra_refresh=0 / rc_lookahead=50 / rc=crf / mbtree=1 / crf=21.0 / qcomp=0.60 / qpmin=0 / qpmax=69 / qpstep=4 / ip_ratio=1.40 / aq=1:1.00\nLanguage                                 : English\nDefault                                  : Yes\nForced                                   : No\nMatrix coefficients                      : BT.709-5, BT.1361, IEC 61966-2-4 709, SMPTE RP177\n\nAudio\nID                                       : 2\nFormat                                   : AC-3\nFormat/Info                              : Audio Coding 3\nMode extension                           : CM (complete main)\nFormat settings, Endianness              : Big\nCodec ID                                 : A_AC3\nDuration                                 : 42mn 33s\nBit rate mode                            : Constant\nBit rate                                 : 384 Kbps\nChannel(s)                               : 6 channels\nChannel positions                        : Front: L C R, Side: L R, LFE\nSampling rate                            : 48.0 KHz\nBit depth                                : 16 bits\nCompression mode                         : Lossy\nStream size                              : 117 MiB (10%)\nDefault                                  : Yes\nForced                                   : No\n\n","torrent":{"xt":"urn:btih:98a21756be0145829295df5a08fdde83abfb6fae","amp;dn":"American.Chopper.Senior.vs.Junior.S04E13.Impasse.720p.HDTV.x264-","amp;tr":["udp%3A%2F%2Ftracker.openbittorrent.com%3A80","udp%3A%2F%2Fopen.demonii.com%3A1337","udp%3A%2F%2Ftracker.coppersurfer.tk%3A6969","udp%3A%2F%2Fexodus.desync.com%3A6969"],"infoHash":"98a21756be0145829295df5a08fdde83abfb6fae","infoHashBuffer":{"type":"Buffer","data":[152,162,23,86,190,1,69,130,146,149,223,90,8,253,222,131,171,251,111,174]},"announce":[],"urlList":[]}}